{"accessors":[{"name":"_root_Cube.004-Mesh_positions","componentType":5126,"count":24,"min":[-0.5,-0.5,-0.5],"max":[0.5,0.5,0.5],"type":"VEC3","bufferView":0,"byteOffset":0},{"name":"_root_Cube.004-Mesh_normals","componentType":5126,"count":24,"min":[-1,-1,-1],"max":[1,1,1],"type":"VEC3","bufferView":0,"byteOffset":89952},{"name":"_root_Cube.004-Mesh_0_indices","componentType":5123,"count":36,"min":[0],"max":[23],"type":"SCALAR","bufferView":2,"byteOffset":0},{"name":"foil_gold_NEAR.009-Mesh_positions","componentType":5126,"count":1091,"min":[-0.7522519826889038,-0.972536027431488,-0.7500600218772888],"max":[0.7525929808616638,1.432286024093628,0.7500720024108887],"type":"VEC3","bufferView":0,"byteOffset":288},{"name":"foil_gold_NEAR.009-Mesh_normals","componentType":5126,"count":1091,"min":[-1,-1,-1],"max":[1,1,1],"type":"VEC3","bufferView":0,"byteOffset":90240},{"name":"foil_gold_NEAR.009-Mesh_texcoords","componentType":5126,"count":1091,"min":[0.012532000429928303,0.008969999849796295],"max":[0.8370040059089661,0.9110820293426514],"type":"VEC2","bufferView":1,"byteOffset":0},{"name":"foil_gold_NEAR.009-Mesh_0_indices","componentType":5123,"count":5022,"min":[0],"max":[1090],"type":"SCALAR","bufferView":2,"byteOffset":72},{"name":"tex_01_NEAR.023-Mesh_positions","componentType":5126,"count":6051,"min":[-2.6467878818511963,-1.4322869777679443,-2.6467878818511963],"max":[2.646789073944092,1.175995945930481,2.6467878818511963],"type":"VEC3","bufferView":0,"byteOffset":13380},{"name":"tex_01_NEAR.023-Mesh_normals","componentType":5126,"count":6051,"min":[-1,-1,-1],"max":[1,1,1],"type":"VEC3","bufferView":0,"byteOffset":103332},{"name":"tex_01_NEAR.023-Mesh_texcoords","componentType":5126,"count":6051,"min":[0.005344000179320574,0.008926999755203724],"max":[0.7787209749221802,0.7624130249023438],"type":"VEC2","bufferView":1,"byteOffset":8728},{"name":"tex_01_NEAR.023-Mesh_0_indices","componentType":5123,"count":21486,"min":[0],"max":[6050],"type":"SCALAR","bufferView":2,"byteOffset":10116},{"name":"shiny_panels_NEAR.019-Mesh_positions","componentType":5126,"count":16,"min":[-2.633342981338501,0.7576429843902588,-2.633342981338501],"max":[2.6333439350128174,0.7576429843902588,2.6333439350128174],"type":"VEC3","bufferView":0,"byteOffset":85992},{"name":"shiny_panels_NEAR.019-Mesh_normals","componentType":5126,"count":16,"min":[0,1,0],"max":[0,1,0],"type":"VEC3","bufferView":0,"byteOffset":175944},{"name":"shiny_panels_NEAR.019-Mesh_texcoords","componentType":5126,"count":16,"min":[0.5336120128631592,0.01641000062227249],"max":[0.7766910195350647,0.50627601146698],"type":"VEC2","bufferView":1,"byteOffset":57136},{"name":"shiny_panels_NEAR.019-Mesh_0_indices","componentType":5123,"count":24,"min":[0],"max":[15],"type":"SCALAR","bufferView":2,"byteOffset":53088},{"name":"foil_silver_NEAR-Mesh_positions","componentType":5126,"count":314,"min":[-0.7681800127029419,-1.3542929887771606,-0.6453480124473572],"max":[0.7354599833488464,-0.9718030095100403,0.7681440114974976],"type":"VEC3","bufferView":0,"byteOffset":86184},{"name":"foil_silver_NEAR-Mesh_normals","componentType":5126,"count":314,"min":[-1,-1,-1],"max":[1,1,1],"type":"VEC3","bufferView":0,"byteOffset":176136},{"name":"foil_silver_NEAR-Mesh_texcoords","componentType":5126,"count":314,"min":[0.03239100053906441,0.13703300058841705],"max":[0.7270230054855347,0.7409700155258179],"type":"VEC2","bufferView":1,"byteOffset":57264},{"name":"foil_silver_NEAR-Mesh_0_indices","componentType":5123,"count":1308,"min":[0],"max":[313],"type":"SCALAR","bufferView":2,"byteOffset":53136}],"asset":{"generator":"obj2gltf","version":"2.0"},"buffers":[{"name":"input","byteLength":295432,"uri":"data:application/octet-stream;base64,"}],"bufferViews":[{"name":"bufferView_0","buffer":0,"byteLength":179904,"byteOffset":0,"byteStride":12,"target":34962},{"name":"bufferView_1","buffer":0,"byteLength":59776,"byteOffset":179904,"byteStride":8,"target":34962},{"name":"bufferView_2","buffer":0,"byteLength":55752,"byteOffset":239680,"target":34963}],"materials":[{"name":"None","pbrMetallicRoughness":{"baseColorFactor":[0.5,0.5,0.5,1],"metallicFactor":0,"roughnessFactor":1},"emissiveFactor":[0,0,0],"alphaMode":"OPAQUE","doubleSided":false},{"name":"foil_gold","pbrMetallicRoughness":{"baseColorFactor":[0.5,0.5,0.5,1],"metallicFactor":0,"roughnessFactor":1},"emissiveFactor":[0,0,0],"alphaMode":"OPAQUE","doubleSided":false},{"name":"tex_01","pbrMetallicRoughness":{"baseColorFactor":[0.5,0.5,0.5,1],"metallicFactor":0,"roughnessFactor":1},"emissiveFactor":[0,0,0],"alphaMode":"OPAQUE","doubleSided":false},{"name":"shiny_panels","pbrMetallicRoughness":{"baseColorFactor":[0.5,0.5,0.5,1],"metallicFactor":0,"roughnessFactor":1},"emissiveFactor":[0,0,0],"alphaMode":"OPAQUE","doubleSided":false},{"name":"foil_silver","pbrMetallicRoughness":{"baseColorFactor":[0.5,0.5,0.5,1],"metallicFactor":0,"roughnessFactor":1},"emissiveFactor":[0,0,0],"alphaMode":"OPAQUE","doubleSided":false}],"meshes":[{"name":"_root_Cube.004-Mesh","primitives":[{"attributes":{"POSITION":0,"NORMAL":1},"indices":2,"material":0,"mode":4}]},{"name":"foil_gold_NEAR.009-Mesh","primitives":[{"attributes":{"POSITION":3,"NORMAL":4,"TEXCOORD_0":5},"indices":6,"material":1,"mode":4}]},{"name":"tex_01_NEAR.023-Mesh","primitives":[{"attributes":{"POSITION":7,"NORMAL":8,"TEXCOORD_0":9},"indices":10,"material":2,"mode":4}]},{"name":"shiny_panels_NEAR.019-Mesh","primitives":[{"attributes":{"POSITION":11,"NORMAL":12,"TEXCOORD_0":13},"indices":14,"material":3,"mode":4}]},{"name":"foil_silver_NEAR-Mesh","primitives":[{"attributes":{"POSITION":15,"NORMAL":16,"TEXCOORD_0":17},"indices":18,"material":4,"mode":4}]}],"nodes":[{"name":"_root_Cube.004","mesh":0},{"name":"foil_gold_NEAR.009","mesh":1},{"name":"tex_01_NEAR.023","mesh":2},{"name":"shiny_panels_NEAR.019","mesh":3},{"name":"foil_silver_NEAR","mesh":4}],"scene":0,"scenes":[{"nodes":[0,1,2,3,4]}]}
